<?xml version="1.0" encoding="UTF-8"?>
<svg version="1.1" xmlns="http://www.w3.org/2000/svg" width="128" height="128">
<path d="M0 0 C4.02274444 3.82160722 5.32530737 6.80276636 5.9375 12.3125 C5.74329619 16.92042684 4.19677598 19.6578223 1.5 23.375 C-2.63652649 26.92059413 -7.25827797 27.04382366 -12.5 27.375 C-11.91476563 27.86613281 -11.32953125 28.35726563 -10.7265625 28.86328125 C-7.83247508 32.12801495 -6.48812635 35.54752845 -4.875 39.5625 C-3.18508457 44.79622937 -3.18508457 44.79622937 0.5 48.375 C4.06596051 48.71461529 7.6282229 49.0455075 11.203125 49.2734375 C15.24882519 49.65140949 16.98177325 49.88640909 20.02734375 52.7578125 C21.5 55.375 21.5 55.375 21.6875 58.5 C20.5 61.375 20.5 61.375 17.71484375 63.0234375 C12.29565858 65.15227928 6.61565037 64.88831937 0.875 64.875 C-0.24390625 64.90335937 -1.3628125 64.93171875 -2.515625 64.9609375 C-10.64102839 64.98032987 -10.64102839 64.98032987 -14.6484375 62.15625 C-16.35616241 59.59105984 -17.57763477 57.30979846 -18.5 54.375 C-19.67232685 55.9959213 -20.8377077 57.62186833 -22 59.25 C-22.6496875 60.15492187 -23.299375 61.05984375 -23.96875 61.9921875 C-25.68020606 64.18335508 -25.68020606 64.18335508 -25.5 66.375 C-23.65317545 67.73581809 -21.74529085 69.01431948 -19.8125 70.25 C-9.13309353 77.10881295 -9.13309353 77.10881295 -7.5 80.375 C-6.66863754 87.85726218 -9.15883492 92.72175644 -12.625 99.25 C-13.099375 100.17941406 -13.57375 101.10882813 -14.0625 102.06640625 C-25.25280486 123.75140243 -25.25280486 123.75140243 -30.5 126.375 C-36.88979973 126.83971271 -36.88979973 126.83971271 -39.1875 125.08984375 C-41.07158944 122.62819118 -41.08201831 120.31722221 -40.98828125 117.29296875 C-39.99859027 111.37857547 -37.52220837 105.85514822 -35.27832031 100.32128906 C-34.16175985 97.52918742 -33.14140437 94.70484526 -32.125 91.875 C-31.80789062 90.9984375 -31.49078125 90.121875 -31.1640625 89.21875 C-30.94492188 88.6103125 -30.72578125 88.001875 -30.5 87.375 C-31.551875 87.00375 -31.551875 87.00375 -32.625 86.625 C-35.87002459 85.21411974 -38.60316737 83.39604602 -41.5 81.375 C-42.16386719 82.26703125 -42.82773437 83.1590625 -43.51171875 84.078125 C-44.40331644 85.26066509 -45.29526205 86.44294292 -46.1875 87.625 C-46.62255859 88.21152344 -47.05761719 88.79804687 -47.50585938 89.40234375 C-52.80477684 96.38906456 -52.80477684 96.38906456 -56.5 98.375 C-60.5498742 98.76081343 -64.50966834 98.51685311 -68.5625 98.25 C-70.16641602 98.17652344 -70.16641602 98.17652344 -71.80273438 98.1015625 C-91.40852494 97.05907938 -91.40852494 97.05907938 -95.80493164 93.51904297 C-97.5 91.375 -97.5 91.375 -98.0625 87.875 C-97.5 84.375 -97.5 84.375 -95.6484375 82.234375 C-91.09097825 79.54287301 -86.77390851 79.45392519 -81.5625 79.125 C-80.09780273 79.00898438 -80.09780273 79.00898438 -78.60351562 78.890625 C-73.89513802 78.53310751 -69.22475639 78.27906586 -64.5 78.375 C-64.29375 77.715 -64.0875 77.055 -63.875 76.375 C-62.3531464 73.05459215 -60.4156245 70.67153875 -58.03515625 67.92578125 C-56.53231275 65.42869015 -55.95355702 63.53353002 -55.2265625 60.73828125 C-53.5407127 54.75486467 -50.42568447 50.24504159 -46.8125 45.25 C-46.20599609 44.38890625 -45.59949219 43.5278125 -44.97460938 42.640625 C-43.49482203 40.5432886 -42.00344335 38.45540936 -40.5 36.375 C-40.83 36.045 -41.16 35.715 -41.5 35.375 C-48.125545 35.77219466 -52.83541674 38.38406973 -58.5390625 41.58007812 C-63.01893082 43.97135919 -66.2877323 44.99395679 -71.5 44.375 C-73.5 42.375 -73.5 42.375 -74 39.1875 C-73.16012268 32.78343543 -68.51975625 29.0741311 -63.66015625 25.1015625 C-62.30061575 24.05937872 -60.93464163 23.02553632 -59.5625 22 C-58.88509766 21.46761719 -58.20769531 20.93523438 -57.50976562 20.38671875 C-53.20412055 17.14200443 -50.0566636 15.36915088 -44.5 15.375 C-40.6312427 15.9803872 -36.86052708 16.86608206 -33.0625 17.8125 C-32.04478516 18.05548828 -31.02707031 18.29847656 -29.97851562 18.54882812 C-27.4827509 19.14640559 -24.99036069 19.75535672 -22.5 20.375 C-22.65855469 19.79363281 -22.81710938 19.21226563 -22.98046875 18.61328125 C-24.155108 13.55261742 -24.23377511 9.17073328 -21.8125 4.5625 C-16.42025952 -2.87004769 -8.21666361 -3.81487953 0 0 Z M-14.875 5.9375 C-17.0699479 9.22992184 -17.56944397 11.41669355 -17.5 15.375 C-15.64658666 18.47850449 -15.64658666 18.47850449 -12.5 20.375 C-8.50192592 21.00627485 -6.49264015 21.05417484 -3.125 18.75 C-1.14157637 15.85115008 -0.64588553 13.8762527 -0.5 10.375 C-1.62018899 7.01443304 -2.44534099 6.41143934 -5.5 4.375 C-9.34765451 3.95525587 -11.59631706 3.78047175 -14.875 5.9375 Z M-60.5 31.375 C-62.46549604 33.08867043 -64.47587771 34.73002746 -66.5 36.375 C-63.68870435 37.68954189 -63.68870435 37.68954189 -61.82104492 36.61474609 C-60.90995972 36.01267334 -60.90995972 36.01267334 -59.98046875 35.3984375 C-47.0123571 27.36128252 -47.0123571 27.36128252 -38.4375 29.3125 C-36.43845941 29.93987044 -34.44892093 30.60593294 -32.5 31.375 C-33.01241776 35.8583497 -34.03075005 38.71013973 -36.58984375 42.4140625 C-37.20923828 43.32414062 -37.82863281 44.23421875 -38.46679688 45.171875 C-39.11712891 46.10515625 -39.76746094 47.0384375 -40.4375 48 C-41.71934016 49.86588897 -42.99936213 51.73302863 -44.27734375 53.6015625 C-44.84702881 54.42221191 -45.41671387 55.24286133 -46.00366211 56.08837891 C-48.84530306 60.38514096 -48.84530306 60.38514096 -49.42578125 65.3828125 C-48.25866005 69.15502703 -46.94431333 70.07879111 -43.6875 72.25 C-42.70265625 72.91773438 -41.7178125 73.58546875 -40.703125 74.2734375 C-39.64609375 74.96695313 -38.5890625 75.66046875 -37.5 76.375 C-36.38891344 77.13552635 -35.27954215 77.89856451 -34.171875 78.6640625 C-29.23523942 82.61260347 -29.23523942 82.61260347 -23.5 84.375 C-24.88822793 91.72040384 -27.28784976 98.28524543 -30.125 105.1875 C-30.95684694 107.21225628 -31.78264199 109.2395124 -32.6015625 111.26953125 C-32.96588379 112.15487549 -33.33020508 113.04021973 -33.70556641 113.95239258 C-34.70773257 116.58355258 -34.70773257 116.58355258 -34.5 120.375 C-30.85514714 119.16004905 -30.57739789 118.30208474 -28.71484375 115.05078125 C-28.19390137 114.14537598 -27.67295898 113.2399707 -27.13623047 112.30712891 C-26.32629639 110.8557251 -26.32629639 110.8557251 -25.5 109.375 C-24.96391113 108.41899902 -24.42782227 107.46299805 -23.87548828 106.47802734 C-22.24180972 103.52107406 -20.64811174 100.54546848 -19.0625 97.5625 C-18.50884766 96.55251953 -17.95519531 95.54253906 -17.38476562 94.50195312 C-16.86720703 93.52548828 -16.34964844 92.54902344 -15.81640625 91.54296875 C-15.34662354 90.66922607 -14.87684082 89.7954834 -14.39282227 88.89526367 C-13.31270348 85.84629833 -13.35853247 84.39202483 -14.5 81.375 C-16.23454081 79.66262106 -16.23454081 79.66262106 -18.5 78.3671875 C-19.7065625 77.59955078 -19.7065625 77.59955078 -20.9375 76.81640625 C-22.2059375 76.04103516 -22.2059375 76.04103516 -23.5 75.25 C-25.17126412 74.2131029 -26.83817404 73.16914464 -28.5 72.1171875 C-29.2425 71.6619873 -29.985 71.20678711 -30.75 70.73779297 C-32.5 69.375 -32.5 69.375 -33.5 66.375 C-32.19921875 63.58203125 -32.19921875 63.58203125 -30.1875 60.1875 C-29.83228271 59.58252686 -29.47706543 58.97755371 -29.11108398 58.35424805 C-25.76820023 52.70652256 -22.27521136 47.14677481 -18.73901367 41.6184082 C-17.00423332 38.88987544 -15.52694895 36.45584684 -14.5 33.375 C-30.07856728 21.6626465 -45.95184575 16.3474653 -60.5 31.375 Z M-12.5 42.375 C-14.73684701 45.07890003 -14.73684701 45.07890003 -14.375 47.5625 C-13.58833211 50.09107537 -12.64122214 52.1997862 -11.4453125 54.55078125 C-10.90028076 55.62646362 -10.90028076 55.62646362 -10.34423828 56.72387695 C-10.06563965 57.26874756 -9.78704102 57.81361816 -9.5 58.375 C-6.06257082 58.43302698 -2.62526747 58.46860486 0.8125 58.5 C2.27719727 58.52513672 2.27719727 58.52513672 3.77148438 58.55078125 C4.70927734 58.55722656 5.64707031 58.56367187 6.61328125 58.5703125 C7.90939331 58.58602295 7.90939331 58.58602295 9.23168945 58.60205078 C11.78180721 58.52590168 11.78180721 58.52590168 14.5 56.375 C13.92032471 56.34172607 13.34064941 56.30845215 12.7434082 56.27416992 C-3.88621179 55.12563745 -3.88621179 55.12563745 -7.94140625 50.7265625 C-9.14725112 47.92612278 -9.99029011 45.37719127 -10.5 42.375 C-11.16 42.375 -11.82 42.375 -12.5 42.375 Z M-53.5 72.375 C-53.90347656 73.14368408 -54.30695312 73.91236816 -54.72265625 74.7043457 C-57.52428472 79.32428162 -59.64707122 82.72299399 -64.87890625 84.56396484 C-68.77078927 85.12654282 -72.57092817 85.41049379 -76.5 85.5625 C-77.86099751 85.65216305 -79.22169374 85.74652887 -80.58203125 85.84570312 C-83.88802591 86.06844745 -87.18933701 86.2433259 -90.5 86.375 C-90.83 87.365 -91.16 88.355 -91.5 89.375 C-73.27848003 93.72273735 -73.27848003 93.72273735 -55.734375 90.86328125 C-53.91606787 88.78803942 -52.72025388 86.84174977 -51.5 84.375 C-50.67630417 83.26362533 -49.84410563 82.15845354 -49 81.0625 C-48.505 80.175625 -48.01 79.28875 -47.5 78.375 C-48.74546405 74.63860784 -50.13404953 74.18743487 -53.5 72.375 Z " fill="#000000" transform="translate(102.5,1.625)"/>
</svg>
